<?xml version="1.0" standalone="no"?>
<!DOCTYPE svg PUBLIC "-//W3C//DTD SVG 20010904//EN"
 "http://www.w3.org/TR/2001/REC-SVG-20010904/DTD/svg10.dtd">
<svg version="1.0" xmlns="http://www.w3.org/2000/svg"
 width="611.000000pt" height="611.000000pt" viewBox="0 0 611.000000 611.000000"
 preserveAspectRatio="xMidYMid meet">
<metadata>
Created by potrace 1.14, written by Peter Selinger 2001-2017
</metadata>
<g transform="translate(0.000000,611.000000) scale(0.100000,-0.100000)"
fill="#000000" stroke="none">
<path d="M0 3055 l0 -3055 3055 0 3055 0 0 3055 0 3055 -3055 0 -3055 0 0
-3055z m3410 2510 c556 -84 1058 -340 1446 -737 196 -200 344 -409 464 -653
87 -177 132 -300 180 -489 61 -241 75 -356 75 -626 0 -266 -14 -382 -72 -615
-45 -181 -98 -326 -183 -500 -199 -406 -507 -753 -895 -1007 -135 -89 -351
-199 -499 -253 -130 -48 -370 -108 -521 -131 -169 -26 -542 -26 -710 0 -564
86 -1061 339 -1451 738 -61 62 -139 149 -174 193 -155 196 -312 473 -395 699
-48 130 -108 370 -131 521 -26 169 -26 542 0 710 86 567 340 1064 742 1455
416 405 928 644 1514 709 121 14 484 5 610 -14z"/>
</g>
</svg>
